<svg width="51" height="44" viewBox="0 0 51 44" fill="none" xmlns="http://www.w3.org/2000/svg">
<path d="M12.75 0C9.24375 0 6.12 1.46625 3.76125 3.76125C1.46625 6.05625 0 9.18 0 12.75C0 16.2563 1.46625 19.38 3.76125 21.7388L25.5 43.4775L47.2388 21.7388C49.5337 19.4438 51 16.32 51 12.75C51 9.24375 49.5337 6.12 47.2388 3.76125C44.9437 1.46625 41.82 0 38.25 0C34.7438 0 31.62 1.46625 29.2613 3.76125C26.9663 6.05625 25.5 9.18 25.5 12.75C25.5 9.24375 24.0338 6.12 21.7388 3.76125C19.4438 1.46625 16.32 0 12.75 0Z" fill="black"/>
</svg>
